<svg fill="none" height="60" width="61" xmlns="http://www.w3.org/2000/svg"><rect fill="#212b2a" height="60" rx="8" width="60" x=".893"/><path clip-rule="evenodd" d="m18.21 39.063a1.353 1.353 0 0 1 .966-.432h30.35a.67.67 0 0 1 .603.4.658.658 0 0 1 -.12.708l-6.433 7.092a1.351 1.351 0 0 1 -.966.432h-30.37a.67.67 0 0 1 -.602-.399.658.658 0 0 1 .12-.709zm31.829-5.88a.66.66 0 0 1 -.483 1.109l-30.36.024a1.362 1.362 0 0 1 -.967-.432l-6.481-7.068a.66.66 0 0 1 .483-1.108l30.36-.024a1.36 1.36 0 0 1 .966.432l6.482 7.068zm-31.829-20.013a1.353 1.353 0 0 1 .966-.432l30.37.024a.67.67 0 0 1 .602.399.656.656 0 0 1 -.119.709l-6.453 7.068a1.351 1.351 0 0 1 -.966.431h-30.37a.67.67 0 0 1 -.602-.398.658.658 0 0 1 .12-.71z" fill="#2f3d3b" fill-rule="evenodd"/></svg>