<svg xmlns="http://www.w3.org/2000/svg" width="61" height="60" fill="none"><rect width="60" height="60" x=".893" fill="#212B2A" rx="8"/><path fill="#2F3D3B" fill-rule="evenodd" d="M18.21 39.063a1.353 1.353 0 0 1 .966-.432h30.35a.67.67 0 0 1 .603.4.658.658 0 0 1-.12.708l-6.433 7.092a1.351 1.351 0 0 1-.966.432H12.24a.67.67 0 0 1-.602-.399.658.658 0 0 1 .12-.709l6.452-7.092Zm31.829-5.88a.66.66 0 0 1-.483 1.109l-30.36.024a1.362 1.362 0 0 1-.967-.432l-6.481-7.068a.66.66 0 0 1 .483-1.108l30.36-.024a1.36 1.36 0 0 1 .966.432l6.482 7.068ZM18.21 13.17a1.353 1.353 0 0 1 .966-.432l30.37.024a.67.67 0 0 1 .602.399.656.656 0 0 1-.119.709l-6.453 7.068a1.351 1.351 0 0 1-.966.431H12.24a.67.67 0 0 1-.602-.398.658.658 0 0 1 .12-.71l6.452-7.091Z" clip-rule="evenodd"/></svg>