<svg xmlns="http://www.w3.org/2000/svg" width="14" height="14" fill="none" viewBox="0 0 14 14"><path fill="#8a8d8c" fill-rule="evenodd" d="M4.687 1.875a.47.47 0 0 1 .45.34l.509 1.779a2.34 2.34 0 0 0 1.61 1.61l1.779.508a.469.469 0 0 1 0 .901l-1.78.508a2.34 2.34 0 0 0-1.61 1.61l-.507 1.779a.468.468 0 0 1-.901 0l-.509-1.779a2.34 2.34 0 0 0-1.61-1.61L.34 7.013a.469.469 0 0 1 0-.901l1.778-.508a2.34 2.34 0 0 0 1.61-1.61l.509-1.779a.47.47 0 0 1 .45-.34M10.312 0a.47.47 0 0 1 .455.355l.161.648a1.64 1.64 0 0 0 1.194 1.193l.648.161a.469.469 0 0 1 0 .91l-.648.162a1.64 1.64 0 0 0-1.194 1.193l-.16.648a.469.469 0 0 1-.91 0l-.162-.647a1.64 1.64 0 0 0-1.194-1.194l-.647-.161a.469.469 0 0 1 0-.91l.647-.162a1.64 1.64 0 0 0 1.194-1.194l.161-.647A.47.47 0 0 1 10.312 0m-.937 8.438a.47.47 0 0 1 .445.32l.246.74c.094.279.312.499.592.592l.74.247a.468.468 0 0 1 0 .889l-.74.246a.94.94 0 0 0-.592.593l-.247.74a.47.47 0 0 1-.889 0l-.247-.74a.94.94 0 0 0-.592-.592l-.74-.247a.468.468 0 0 1 0-.89l.74-.246c.28-.094.5-.312.592-.592l.247-.74a.47.47 0 0 1 .445-.32" clip-rule="evenodd"/></svg>