<svg fill="none" height="12" viewBox="0 0 12 12" width="12" xmlns="http://www.w3.org/2000/svg" xmlns:xlink="http://www.w3.org/1999/xlink"><clipPath id="a"><path d="m0 0h12v12h-12z"/></clipPath><g clip-path="url(#a)" stroke="#fff" stroke-linecap="round" stroke-linejoin="round"><path d="m10 6v-2h-7c-.26522 0-.51957-.10536-.70711-.29289-.18753-.18754-.29289-.44189-.29289-.70711 0-.55.45-1 1-1h6v2"/><path d="m2 3v6c0 .55.45 1 1 1h7v-2"/><path d="m9 6c-.26522 0-.51957.10536-.70711.29289-.18753.18754-.29289.44189-.29289.70711 0 .55.45 1 1 1h2v-2z"/></g></svg>